<svg id="PHONE" xmlns="http://www.w3.org/2000/svg" viewBox="0 0 1451.34 1451.34"><defs><style>.cls-1{fill:#fff;}</style></defs><title>phone-white</title><path class="cls-1" d="M245.43,132.56h0a8.18,8.18,0,0,1,6,2.07l216.14,216.2c3.47,3.47,3,11.72-2.9,17.6l-35.88,35.93L355.74,477.3l-54.1,54,37.94,66.37c2.92,5.12,6,10.73,9.31,16.68l1.72,3.1,0,.07,0,.08.21.38c19.56,35.22,43.9,79,76.66,127.28a1067.65,1067.65,0,0,0,129.67,156.9,1063.91,1063.91,0,0,0,156.91,129.68c48.29,32.77,92,57,127.08,76.44,7.58,4.26,14.76,8.25,21.94,12.21L929,1156.78l53.15-53.14,108.93-108.91a16.11,16.11,0,0,1,11.42-5,8.5,8.5,0,0,1,6.18,2.14l216,216c3.44,3.5,3,11.66-2.65,17.53l-45.85,44.9-8.27,6.46a252.76,252.76,0,0,1-62.9,35.57,267,267,0,0,1-64.64,16.39c-1.4.12-6.51.49-14.93.49-16.83,0-44.82-1.44-82.52-8.27-46.06-8.36-94.32-22.54-143.44-42.16-63.88-25.51-128.83-60.13-193-102.9-78-51.93-155.76-116.52-231.21-192-71.8-71.81-130-136.58-178-198-47.29-60.55-83.45-116.32-110.54-170.51-50.32-100.67-68.09-194.47-55.94-295.2l0-.38,0-.37c2.38-21.1,7.7-42.39,16.26-65.06a250.8,250.8,0,0,1,35.62-62.86l8.67-11.07L234,137.56a16.16,16.16,0,0,1,11.42-5m0-100a116.3,116.3,0,0,0-82.21,34.36L102.3,128.2l1.66,1.65a352.6,352.6,0,0,0-50.21,88.56c-11.71,30.86-19,60.31-22.33,89.82C2.87,544.88,111,761.15,404.49,1054.64c346,345.95,634.7,374.58,720.92,374.58a255.33,255.33,0,0,0,25.79-1.07,365.12,365.12,0,0,0,90.07-22.63,351.43,351.43,0,0,0,88.24-50l1.33,1.18,61.72-60.44c44.54-44.63,45.82-115.94,2.88-159L1179.26,921a108.17,108.17,0,0,0-76.78-31.32A116.15,116.15,0,0,0,1020.34,924L911.42,1032.93c-6.88-3.8-14-7.76-21.49-12C821.15,982.86,727,930.63,628,831.5c-99.35-99.34-151.63-193.62-189.86-262.44-4-7.29-7.9-14.32-11.71-21l73.09-73,35.94-36c44.63-44.64,45.86-115.93,2.9-158.94L322.15,63.93c-20.95-21-48.66-31.37-76.72-31.37Z"/></svg>