<svg id="Слой_19" data-name="Слой 19" xmlns="http://www.w3.org/2000/svg" viewBox="0 0 1451.34 1451.34"><defs><style>.cls-1{fill:#fff;}</style></defs><title>tel-white</title><path class="cls-1" d="M275.42,79c1,0,1.92,0,2.89.05,16.88.73,33.83,6.69,51.81,18.22,21.38,13.69,44,35.26,67.15,64.11,34.8,43.29,59,81.49,71.88,113.55,9.63,24,13,44.11,10.16,61.6-2.29,14.38-9,28.61-21.14,44.77-13.47,18-32.05,36.26-51.73,55.64l-.09.08-.06.06-.06.06-14.9,14.76-.1.1-.1.11c-10.89,10.88-24.2,30.33-25.77,61.14-1.21,24,5,50.43,18.89,80.73,14.27,31,37.41,67.17,68.78,107.38,35.63,45.67,83,98.17,140.9,156,82.2,82.21,153,142.82,210.48,180.17a427.5,427.5,0,0,0,53.78,30.11c27.81,12.78,52,19,74,19,33.57,0,55-14.37,67-26.42l.1-.1.1-.11,15-15.13,0-.05,0-.06c21.56-21.86,41.92-42.51,61.94-56.16,17.73-12.09,33.36-17.48,50.69-17.49,39.52,0,94.3,27.93,162.82,83,28.83,23.18,50.39,45.75,64.06,67.11,11.55,18,17.51,35.06,18.21,52,.91,22.26-7,44.44-25,69.82-19.19,27.07-46.58,53.06-73.06,78.2l0,0-.05.05-3.55,3.38c-8,7.64-16.31,15.54-24.1,23.29l-.08.08-.08.08c-16.83,16.85-49.41,26.14-91.73,26.14-52.31,0-117-14-187.06-40.42C886.64,1303.45,802,1258.13,716,1199.2,629,1139.67,544.06,1068.59,463.41,987.94S311.66,822.29,252.1,735.31c-58.93-86-104.27-170.68-134.78-251.53C91,414,77.05,349.42,77,297.17c0-42.49,9.29-75.24,26.29-92.22,8.71-8.72,17.16-17.62,26.1-27l.8-.84c24.53-25.8,49.9-52.48,76.51-71.66,25-18,46.86-26.42,68.73-26.42m0-60C197.94,19,139,80.73,86.7,135.72c-8.85,9.33-17.42,18.38-25.85,26.8C2.25,221.08,2.39,349,61.18,505,125.88,676.42,253.65,863,421,1030.37s353.86,295.06,525.33,359.7c78.22,29.52,149.34,44.28,208.23,44.28,58.6,0,105.11-14.62,134.2-43.75,8.42-8.38,17.47-16.95,26.75-25.8,56.27-53.42,120-114,116.73-194-2.29-55.27-36.52-108.68-104.64-163.43-87.4-70.26-150.35-96.24-200.41-96.24-65.1,0-108.41,43.93-155.34,91.53l-15,15.14c-6.27,6.27-14.81,8.85-24.62,8.85-29.2,0-69.66-22.88-95.11-39.41-54-35.09-121.53-93.07-200.75-172.29-242.69-242.69-216.6-306.62-202.8-320.43l14.9-14.76c84.41-83.12,157.34-154.81-4.42-356C389.28,55.65,335.82,21.37,280.64,19.09c-1.75-.07-3.48-.1-5.22-.1Z"/></svg>